<svg width="1440" height="160" viewBox="0 0 1440 160" fill="none" xmlns="http://www.w3.org/2000/svg">
<path opacity="0.2" d="M1356.93 119.833C1355.38 119.935 1352.16 119.573 1351.73 117.3C1351.18 114.458 1357.6 112.629 1361.64 112.146C1365.67 111.662 1368.27 112.929 1368.49 114.065C1368.71 115.202 1368.58 117.585 1361.01 119.568M1296.67 42.0493C1298.22 41.9464 1301.43 42.3089 1301.87 44.5822C1302.42 47.4238 1295.99 49.253 1291.96 49.7362C1287.93 50.2195 1285.32 48.953 1285.1 47.8164C1284.89 46.6798 1285.02 44.2968 1292.59 42.3139M1366.92 74.1814C1365.42 74.6088 1362.2 74.9312 1361.29 72.8012C1360.16 70.1387 1366.06 66.9974 1369.9 65.6757C1373.74 64.3539 1376.55 65.0441 1377 66.109C1377.46 67.174 1377.83 69.5309 1370.84 73.0645M1339.62 24.9073C1338.07 25.0102 1334.85 24.6477 1334.42 22.3744C1333.87 19.5328 1340.29 17.7036 1344.33 17.2204C1348.36 16.7371 1350.96 18.0036 1351.18 19.1402C1351.4 20.2768 1351.27 22.6598 1343.7 24.6427M1269.82 38.9584C1268.27 39.0614 1265.05 38.6989 1264.62 36.4255C1264.07 33.5839 1270.49 31.7548 1274.53 31.2715C1278.56 30.7882 1281.16 32.0547 1281.38 33.1913C1281.6 34.3279 1281.47 36.7109 1273.9 38.6938M1310.75 116.037C1309.2 116.14 1305.99 115.778 1305.55 113.504C1305 110.663 1311.43 108.834 1315.46 108.35C1319.49 107.867 1322.09 109.133 1322.31 110.27C1322.53 111.407 1322.4 113.79 1314.83 115.773M1241.82 142.959C1240.27 143.062 1237.05 142.699 1236.62 140.426C1236.07 137.584 1242.49 135.755 1246.53 135.272C1250.56 134.788 1253.16 136.055 1253.38 137.191C1253.6 138.328 1253.47 140.711 1245.9 142.694M1138.82 45.9586C1137.27 46.0615 1134.05 45.699 1133.62 43.4257C1133.07 40.584 1139.49 38.7549 1143.53 38.2716C1147.56 37.7884 1150.16 39.0549 1150.38 40.1915C1150.6 41.3281 1150.47 43.7111 1142.9 45.6939M971.82 122.959C970.268 123.062 967.054 122.699 966.616 120.426C966.067 117.584 972.494 115.755 976.527 115.272C980.56 114.788 983.162 116.055 983.381 117.191C983.601 118.328 983.471 120.711 975.895 122.694M1044.82 102.958C1043.27 103.061 1040.05 102.699 1039.62 100.426C1039.07 97.5839 1045.49 95.7548 1049.53 95.2715C1053.56 94.7882 1056.16 96.0547 1056.38 97.1913C1056.6 98.3279 1056.47 100.711 1048.9 102.694M1291.52 70.1328C1289.97 70.2357 1286.76 69.8732 1286.32 67.5999C1285.77 64.7582 1292.2 62.9291 1296.23 62.4458C1300.26 61.9625 1302.87 63.229 1303.08 64.3656C1303.3 65.5022 1303.17 67.8853 1295.6 69.8681M1471.7 38.3444C1470.14 38.4473 1466.93 38.0848 1466.49 35.8115C1465.94 32.9698 1472.37 31.1407 1476.4 30.6574C1480.44 30.1741 1483.04 31.4406 1483.26 32.5773C1483.48 33.7139 1483.35 36.0969 1475.77 38.0797M1415.4 126.705C1413.85 126.807 1410.64 126.445 1410.2 124.172C1409.65 121.33 1416.08 119.501 1420.11 119.018C1424.14 118.534 1426.75 119.801 1426.97 120.937C1427.18 122.074 1427.05 124.457 1419.48 126.44M1416.09 9.75606C1414.53 9.85898 1411.32 9.49648 1410.88 7.22315C1410.33 4.3815 1416.76 2.55237 1420.79 2.06909C1424.83 1.58581 1427.43 2.85232 1427.65 3.98893C1427.87 5.12553 1427.74 7.50855 1420.16 9.4914M81.4742 119.833C83.0263 119.935 86.2401 119.573 86.6787 117.3C87.2268 114.458 80.8007 112.629 76.7675 112.146C72.7344 111.662 70.1322 112.929 69.9129 114.065C69.6936 115.202 69.8234 117.585 77.3989 119.568M141.739 42.0493C140.187 41.9464 136.973 42.3089 136.535 44.5822C135.986 47.4238 142.413 49.253 146.446 49.7362C150.479 50.2195 153.081 48.953 153.3 47.8164C153.52 46.6798 153.39 44.2968 145.814 42.3139M71.4896 74.1814C72.9853 74.6088 76.2034 74.9312 77.1108 72.8012C78.245 70.1387 72.3481 66.9974 68.5072 65.6757C64.6663 64.3539 61.8557 65.0441 61.402 66.109C60.9483 67.174 60.5734 69.5309 67.5614 73.0645M98.7839 24.9073C100.336 25.0102 103.55 24.6477 103.988 22.3744C104.537 19.5328 98.1104 17.7036 94.0773 17.2204C90.0441 16.7371 87.4419 18.0036 87.2226 19.1402C87.0034 20.2768 87.1331 22.6598 94.7086 24.6427M168.585 38.9584C170.137 39.0614 173.351 38.6989 173.789 36.4255C174.337 33.5839 167.911 31.7548 163.878 31.2715C159.845 30.7882 157.243 32.0547 157.023 33.1913C156.804 34.3279 156.934 36.7109 164.509 38.6938M127.653 116.037C129.205 116.14 132.419 115.778 132.857 113.504C133.405 110.663 126.979 108.834 122.946 108.35C118.913 107.867 116.311 109.133 116.091 110.27C115.872 111.407 116.002 113.79 123.577 115.773M196.585 142.959C198.137 143.062 201.351 142.699 201.789 140.426C202.337 137.584 195.911 135.755 191.878 135.272C187.845 134.788 185.243 136.055 185.023 137.191C184.804 138.328 184.934 140.711 192.509 142.694M299.585 45.9586C301.137 46.0615 304.351 45.699 304.789 43.4257C305.337 40.584 298.911 38.7549 294.878 38.2716C290.845 37.7884 288.243 39.0549 288.023 40.1915C287.804 41.3281 287.934 43.7111 295.509 45.6939M466.585 122.959C468.137 123.062 471.351 122.699 471.789 120.426C472.337 117.584 465.911 115.755 461.878 115.272C457.845 114.788 455.243 116.055 455.023 117.191C454.804 118.328 454.934 120.711 462.509 122.694M393.585 102.958C395.137 103.061 398.351 102.699 398.789 100.426C399.337 97.5839 392.911 95.7548 388.878 95.2715C384.845 94.7882 382.243 96.0547 382.023 97.1913C381.804 98.3279 381.934 100.711 389.509 102.694M146.881 70.1328C148.433 70.2357 151.647 69.8732 152.086 67.5999C152.634 64.7582 146.208 62.9291 142.175 62.4458C138.141 61.9625 135.539 63.229 135.32 64.3656C135.101 65.5022 135.23 67.8853 142.806 69.8681M-33.2907 38.3444C-31.7386 38.4473 -28.5247 38.0848 -28.0862 35.8115C-27.538 32.9698 -33.9642 31.1407 -37.9973 30.6574C-42.0305 30.1741 -44.6327 31.4406 -44.852 32.5773C-45.0712 33.7139 -44.9414 36.0969 -37.366 38.0797M23.0008 126.705C24.5529 126.807 27.7667 126.445 28.2052 124.172C28.7534 121.33 22.3272 119.501 18.2941 119.018C14.261 118.534 11.6587 119.801 11.4395 120.937C11.2202 122.074 11.35 124.457 18.9255 126.44M22.3188 9.75606C23.8709 9.85898 27.0847 9.49648 27.5232 7.22315C28.0714 4.3815 21.6452 2.55237 17.6121 2.06909C13.579 1.58581 10.9767 2.85232 10.7575 3.98893C10.5382 5.12553 10.668 7.50855 18.2435 9.4914M1345.11 96.0964C1343.97 94.2123 1348.26 90.8074 1351.07 89.6991C1353.89 88.5908 1356.1 89.181 1356.54 90.0825C1357.9 92.3525 1354.45 94.9947 1352.48 95.9483C1350.5 96.9019 1346.25 97.9804 1345.11 96.0964ZM1326.84 61.3252C1327.98 63.2068 1323.7 66.621 1320.89 67.7354C1318.08 68.8498 1315.87 68.2644 1315.42 67.3639C1314.06 65.0968 1317.5 62.4472 1319.47 61.4893C1321.45 60.5314 1325.7 59.4436 1326.84 61.3252ZM1269.15 100.171C1268.55 98.0528 1273.59 95.905 1276.59 95.5812C1279.6 95.2573 1281.57 96.4121 1281.76 97.3992C1282.47 99.9474 1278.45 101.583 1276.29 101.979C1274.14 102.376 1269.75 102.29 1269.15 100.171ZM1215.83 118.82C1215.01 116.776 1219.8 114.115 1222.75 113.48C1225.71 112.845 1227.79 113.788 1228.09 114.75C1229.05 117.21 1225.22 119.256 1223.12 119.875C1221.02 120.494 1216.65 120.865 1215.83 118.82ZM1242.73 51.4966C1242.13 49.3781 1247.16 47.2303 1250.17 46.9064C1253.17 46.5826 1255.15 47.7373 1255.34 48.7245C1256.05 51.2727 1252.03 52.908 1249.87 53.3047C1247.71 53.7014 1243.33 53.6151 1242.73 51.4966ZM1382.04 101.146C1381.44 99.0278 1386.47 96.88 1389.48 96.5562C1392.48 96.2323 1394.46 97.3871 1394.65 98.3742C1395.36 100.922 1391.33 102.558 1389.18 102.954C1387.02 103.351 1382.64 103.265 1382.04 101.146ZM1355.61 52.4716C1355.01 50.3531 1360.05 48.2052 1363.05 47.8814C1366.06 47.5576 1368.04 48.7123 1368.23 49.6994C1368.93 52.2477 1364.91 53.8829 1362.75 54.2797C1360.6 54.6764 1356.21 54.5901 1355.61 52.4716ZM1434.44 100.247C1433.84 98.1287 1438.88 95.9809 1441.88 95.6571C1444.89 95.3332 1446.87 96.488 1447.06 97.4751C1447.76 100.023 1443.74 101.659 1441.59 102.055C1439.43 102.452 1435.04 102.366 1434.44 100.247ZM1357.94 144.4C1357.34 142.282 1362.38 140.134 1365.38 139.81C1368.39 139.486 1370.37 140.641 1370.56 141.628C1371.26 144.176 1367.24 145.812 1365.09 146.208C1362.93 146.605 1358.54 146.519 1357.94 144.4ZM1126.6 104.521C1126 102.403 1131.03 100.255 1134.04 99.9313C1137.05 99.6075 1139.02 100.762 1139.21 101.749C1139.92 104.298 1135.9 105.933 1133.74 106.33C1131.58 106.726 1127.2 106.64 1126.6 104.521ZM1144.6 140.521C1144 138.403 1149.03 136.255 1152.04 135.931C1155.05 135.607 1157.02 136.762 1157.21 137.749C1157.92 140.298 1153.9 141.933 1151.74 142.33C1149.58 142.726 1145.2 142.64 1144.6 140.521ZM1190.6 107.521C1190 105.403 1195.03 103.255 1198.04 102.931C1201.05 102.607 1203.02 103.762 1203.21 104.749C1203.92 107.298 1199.9 108.933 1197.74 109.33C1195.58 109.726 1191.2 109.64 1190.6 107.521ZM1035.6 120.521C1035 118.403 1040.03 116.255 1043.04 115.931C1046.05 115.607 1048.02 116.762 1048.21 117.749C1048.92 120.298 1044.9 121.933 1042.74 122.33C1040.58 122.726 1036.2 122.64 1035.6 120.521ZM1176.6 74.5216C1176 72.4031 1181.03 70.2553 1184.04 69.9314C1187.05 69.6076 1189.02 70.7623 1189.21 71.7495C1189.92 74.2977 1185.9 75.933 1183.74 76.3297C1181.58 76.7264 1177.2 76.6401 1176.6 74.5216ZM1231.6 92.5216C1231 90.4031 1236.03 88.2553 1239.04 87.9314C1242.05 87.6076 1244.02 88.7623 1244.21 89.7495C1244.92 92.2977 1240.9 93.933 1238.74 94.3297C1236.58 94.7264 1232.2 94.6401 1231.6 92.5216ZM1330.55 74.5614C1329.95 72.4429 1334.98 70.295 1337.99 69.9712C1340.99 69.6474 1342.97 70.8021 1343.16 71.7893C1343.87 74.3375 1339.85 75.9728 1337.69 76.3695C1335.53 76.7662 1331.15 76.6799 1330.55 74.5614ZM1285.03 156.452C1284.43 154.334 1289.46 152.186 1292.47 151.862C1295.47 151.538 1297.45 152.693 1297.64 153.68C1298.35 156.228 1294.32 157.864 1292.17 158.26C1290.01 158.657 1285.63 158.571 1285.03 156.452ZM1416.64 53.4046C1416.04 51.2861 1421.07 49.1382 1424.08 48.8144C1427.08 48.4906 1429.06 49.6453 1429.25 50.6324C1429.96 53.1807 1425.93 54.8159 1423.78 55.2127C1421.62 55.6094 1417.23 55.5231 1416.64 53.4046ZM1398.84 75.4951C1398.87 73.2393 1404.44 72.6097 1407.49 73.1743C1410.53 73.739 1412.14 75.4528 1412.03 76.4777C1411.98 79.1867 1407.55 79.611 1405.32 79.3673C1403.08 79.1236 1398.8 77.7508 1398.84 75.4951ZM1381.63 35.7659C1381.02 33.5952 1386.18 31.3944 1389.26 31.0626C1392.34 30.7308 1394.36 31.914 1394.56 32.9255C1395.28 35.5365 1391.16 37.2121 1388.95 37.6186C1386.74 38.0251 1382.25 37.9366 1381.63 35.7659ZM93.2928 96.0964C94.4319 94.2123 90.1444 90.8074 87.3319 89.6991C84.5193 88.5908 82.308 89.181 81.863 90.0825C80.5068 92.3525 83.9523 94.9947 85.9265 95.9483C87.9006 96.9019 92.1536 97.9804 93.2928 96.0964ZM111.566 61.3252C110.422 63.2068 114.702 66.621 117.513 67.7354C120.323 68.8498 122.535 68.2644 122.982 67.3639C124.343 65.0968 120.904 62.4472 118.932 61.4893C116.959 60.5314 112.709 59.4436 111.566 61.3252ZM169.255 100.171C169.854 98.0528 164.818 95.905 161.813 95.5812C158.807 95.2573 156.831 96.4121 156.641 97.3992C155.934 99.9474 159.956 101.583 162.112 101.979C164.269 102.376 168.655 102.29 169.255 100.171ZM222.576 118.82C223.393 116.776 218.608 114.115 215.652 113.48C212.696 112.845 210.611 113.788 210.319 114.75C209.351 117.21 213.181 119.256 215.284 119.875C217.387 120.494 221.759 120.865 222.576 118.82ZM195.679 51.4966C196.278 49.3781 191.242 47.2303 188.236 46.9064C185.231 46.5826 183.255 47.7373 183.064 48.7245C182.358 51.2727 186.38 52.908 188.536 53.3047C190.692 53.7014 195.079 53.6151 195.679 51.4966ZM56.3688 101.146C56.9683 99.0278 51.9322 96.88 48.9265 96.5562C45.9208 96.2323 43.9449 97.3871 43.7544 98.3742C43.0479 100.922 47.0701 102.558 49.2263 102.954C51.3825 103.351 55.7693 103.265 56.3688 101.146ZM82.7924 52.4716C83.3919 50.3531 78.3557 48.2052 75.3501 47.8814C72.3444 47.5576 70.3684 48.7123 70.178 49.6994C69.4714 52.2477 73.4936 53.8829 75.6499 54.2797C77.8061 54.6764 82.1929 54.5901 82.7924 52.4716ZM3.96217 100.247C4.56167 98.1287 -0.474463 95.9809 -3.48014 95.6571C-6.48581 95.3332 -8.46179 96.488 -8.65221 97.4751C-9.35877 100.023 -5.33656 101.659 -3.18033 102.055C-1.02411 102.452 3.36266 102.366 3.96217 100.247ZM80.4622 144.4C81.0618 142.282 76.0256 140.134 73.02 139.81C70.0143 139.486 68.0383 140.641 67.8479 141.628C67.1413 144.176 71.1635 145.812 73.3198 146.208C75.476 146.605 79.8627 146.519 80.4622 144.4ZM311.807 104.521C312.406 102.403 307.37 100.255 304.365 99.9313C301.359 99.6075 299.383 100.762 299.193 101.749C298.486 104.298 302.508 105.933 304.664 106.33C306.821 106.726 311.207 106.64 311.807 104.521ZM293.807 140.521C294.406 138.403 289.37 136.255 286.365 135.931C283.359 135.607 281.383 136.762 281.193 137.749C280.486 140.298 284.508 141.933 286.664 142.33C288.821 142.726 293.207 142.64 293.807 140.521ZM247.807 107.521C248.406 105.403 243.37 103.255 240.365 102.931C237.359 102.607 235.383 103.762 235.193 104.749C234.486 107.298 238.508 108.933 240.664 109.33C242.821 109.726 247.207 109.64 247.807 107.521ZM402.807 120.521C403.406 118.403 398.37 116.255 395.365 115.931C392.359 115.607 390.383 116.762 390.193 117.749C389.486 120.298 393.508 121.933 395.664 122.33C397.821 122.726 402.207 122.64 402.807 120.521ZM261.807 74.5216C262.406 72.4031 257.37 70.2553 254.365 69.9314C251.359 69.6076 249.383 70.7623 249.193 71.7495C248.486 74.2977 252.508 75.933 254.664 76.3297C256.821 76.7264 261.207 76.6401 261.807 74.5216ZM206.807 92.5216C207.406 90.4031 202.37 88.2553 199.365 87.9314C196.359 87.6076 194.383 88.7623 194.193 89.7495C193.486 92.2977 197.508 93.933 199.664 94.3297C201.821 94.7264 206.207 94.6401 206.807 92.5216ZM107.858 74.5614C108.458 72.4429 103.422 70.295 100.416 69.9712C97.4103 69.6474 95.4343 70.8021 95.2439 71.7893C94.5373 74.3375 98.5595 75.9728 100.716 76.3695C102.872 76.7662 107.259 76.6799 107.858 74.5614ZM153.379 156.452C153.979 154.334 148.942 152.186 145.937 151.862C142.931 151.538 140.955 152.693 140.765 153.68C140.058 156.228 144.08 157.864 146.237 158.26C148.393 158.657 152.78 158.571 153.379 156.452ZM21.7695 53.4046C22.369 51.2861 17.3329 49.1382 14.3272 48.8144C11.3215 48.4906 9.34555 49.6453 9.15512 50.6324C8.44857 53.1807 12.4708 54.8159 14.627 55.2127C16.7832 55.6094 21.17 55.5231 21.7695 53.4046ZM39.5696 75.4951C39.536 73.2393 33.9616 72.6097 30.9159 73.1743C27.8702 73.739 26.2695 75.4528 26.3725 76.4777C26.4271 79.1867 30.8557 79.611 33.0889 79.3673C35.3221 79.1236 39.6031 77.7508 39.5696 75.4951ZM56.774 35.7659C57.3882 33.5952 52.228 31.3944 49.1483 31.0626C46.0685 30.7308 44.0438 31.914 43.8487 32.9255C43.1248 35.5365 47.2461 37.2121 49.4555 37.6186C51.6648 38.0251 56.1597 37.9366 56.774 35.7659Z" stroke="black" stroke-width="3" stroke-linecap="round" stroke-linejoin="round"/>
</svg>
