<svg width="34" height="24" fill="none" xmlns="http://www.w3.org/2000/svg"><path d="M4.802 22.877C.115 20.013-.846 13.93.652 9.125 2.32 3.782 7.123.278 12.413 0l.934 4.181c-3.859-.112-7.477 2.332-8.68 6.19-.141.454-.244.91-.31 1.367a6.87 6.87 0 016.253-1.132c3.62 1.124 5.642 4.964 4.516 8.577-1.127 3.613-4.975 5.63-8.596 4.506a6.913 6.913 0 01-.166-.054v.016a10.37 10.37 0 01-.35-.145 6.85 6.85 0 01-1.21-.63zM22.965 22.877c-4.686-2.864-5.648-8.946-4.149-13.752C20.482 3.782 25.284.278 30.575 0l.935 4.181c-3.86-.112-7.477 2.332-8.68 6.19-.142.454-.245.91-.311 1.367a6.87 6.87 0 016.254-1.132c3.62 1.124 5.642 4.964 4.515 8.577-1.127 3.613-4.975 5.63-8.595 4.506a6.852 6.852 0 01-.166-.054v.016a10.38 10.38 0 01-.35-.145 6.85 6.85 0 01-1.212-.63z" fill="#000"/></svg>