<svg id="Logo_Horizontal_with_Clear_space" data-name="Logo Horizontal with Clear space" xmlns="http://www.w3.org/2000/svg" width="712" height="200" viewBox="0 0 712 200"><title>Logo with clearspace guide_2018MAY</title><path d="M489.83,133.8H476.58a1,1,0,0,1-1-1.23l7.56-42a1,1,0,0,0-2-.6l-18.55,43.17a1,1,0,0,1-1,.63H445.24a1,1,0,0,1-1-1l-3.31-43.17a1,1,0,0,0-2.07-.1l-7.53,43.37a1,1,0,0,1-1,.87H417.11a1.05,1.05,0,0,1-1-1.23l11.59-65.51a1,1,0,0,1,1-.86h23.13a1,1,0,0,1,1,1L456,113a1.05,1.05,0,0,0,2,.33l18.8-46.48a1,1,0,0,1,1-.65h23.62a1,1,0,0,1,1,1.23l-11.59,65.51A1,1,0,0,1,489.83,133.8Z" fill="#ffa400"/><path d="M576.84,94.12c0,24.1-16,41-39,41-20,0-31.06-12.73-31.06-29.29,0-24.2,16-41,39-41C565.76,64.83,576.84,77.56,576.84,94.12Zm-16.27.39c0-10.87-5.49-18.32-15.68-18.32-14.89,0-21.84,16-21.84,29.3,0,10.77,5.48,18.32,15.67,18.32C553.52,123.81,560.57,107.84,560.57,94.51Z" fill="#ffa400"/><path d="M596.77,132.93,585.38,67.42a1,1,0,0,1,1-1.22H600.9a1,1,0,0,1,1,.91l6.78,51.39a1,1,0,0,0,2,.32l25.42-52a1.05,1.05,0,0,1,.94-.59h14.07a1,1,0,0,1,.92,1.54L617.3,133.25a1,1,0,0,1-.92.55H597.8A1,1,0,0,1,596.77,132.93Z" fill="#ffa400"/><path d="M670.67,93.93h29.15a1,1,0,0,1,1,1.23L699.07,105a1,1,0,0,1-1,.86H668.15a1.05,1.05,0,0,0-1,.87l-2.38,13.78a1,1,0,0,0,1,1.22h32.29a1,1,0,0,1,1,1.23l-1.78,10a1,1,0,0,1-1,.86H648.34a1,1,0,0,1-1-1.23l11.58-65.51a1,1,0,0,1,1-.86h47a1,1,0,0,1,1,1.23l-1.78,9.86a1,1,0,0,1-1,.86H673.05a1.05,1.05,0,0,0-1,.87L669.64,92.7A1,1,0,0,0,670.67,93.93Z" fill="#ffa400"/><path d="M210.15,133.8H166.48a1,1,0,0,1-1-1.23L177,67.06a1,1,0,0,1,1-.86h13.16a1,1,0,0,1,1,1.23L183,119.64a1,1,0,0,0,1,1.23h31.89a1,1,0,0,1,.92,1.54l-5.75,10.84A1,1,0,0,1,210.15,133.8Z" fill="#ff671d"/><path d="M335.47,133.8H291.79a1,1,0,0,1-1-1.23l11.58-65.51a1,1,0,0,1,1-.86h13.16a1,1,0,0,1,1,1.23l-9.26,52.21a1,1,0,0,0,1,1.23h31.89a1,1,0,0,1,.92,1.54l-5.75,10.84A1,1,0,0,1,335.47,133.8Z" fill="#ff671d"/><path d="M398.67,67.07a1.05,1.05,0,0,0-1-.87H379.06a1.06,1.06,0,0,0-.93.55l-34.74,65.51a1,1,0,0,0,.92,1.54h14.07a1,1,0,0,0,.94-.58l2.2-4.42h0l13.72-27.6,0-.07,2-4.09,1.39-2.79h0l5.57-11.14a1,1,0,0,1,2,.32l2.59,18a1.05,1.05,0,0,1-1,1.2h-8.25a1.47,1.47,0,0,0-1.31.81l-4.53,9.11A1.47,1.47,0,0,0,375,114.7h15a1,1,0,0,1,1,.89l2.49,17.31a1,1,0,0,0,1,.9H409a1,1,0,0,0,1-1.22Z" fill="#ff671d"/><path d="M273.35,67.07a1,1,0,0,0-1-.87H253.75a1,1,0,0,0-.93.55l-34.75,65.51a1.05,1.05,0,0,0,.93,1.54h14.07a1,1,0,0,0,.93-.58l1-2h0l14.95-30.06s0,0,0-.05l1.44-2.87.78-1.58h0L259,83.11a1,1,0,0,1,2,.32l2.59,18a1.05,1.05,0,0,1-1,1.2h-8.25a1.47,1.47,0,0,0-1.32.81l-4.53,9.11a1.47,1.47,0,0,0,1.32,2.13h14.94a1.05,1.05,0,0,1,1,.89l2.48,17.31a1.05,1.05,0,0,0,1,.9h14.5a1,1,0,0,0,1-1.22Z" fill="#ff671d"/><path d="M154.43,29.65c-52.39,0-40.87,34.5-40.87,34.5-7-2.23-96.23-31.69-108.91-35.87a.43.43,0,0,0-.46.69c1.3,1.48,3.9,4.42,8.07,9.05a2.75,2.75,0,0,0,1.16.77l1.28.44L88.61,63.47a1.86,1.86,0,0,1,1,.82l4,6.81a.09.09,0,0,1-.11.13L21.4,47.56a.19.19,0,0,0-.21.31c1.71,1.88,3.5,3.83,5.35,5.83a4.41,4.41,0,0,0,1.85,1.19L96.91,77.36a1.77,1.77,0,0,1,1,.78l4,6.83a.09.09,0,0,1-.11.13L36.16,63.57a.16.16,0,0,0-.17.26q3.06,3.24,6.17,6.47a2.29,2.29,0,0,0,.92.58l61.79,20.26a2.48,2.48,0,0,1,1.35,1.08l3.92,6.62a.09.09,0,0,1-.1.13L52.55,80.12a.29.29,0,0,0-.29.48c12.8,12.79,24.23,23,28.54,23.4L39.6,196.61a.65.65,0,0,0,1,.76C59.16,182.14,72.24,141.58,92,130.81c28.58-15.6,39.59-24.74,46.63-40.35,8.3-18.4,18.9-49.16,20.46-50.37,11.28-8.72,31.48-28.23,40-36.6a.58.58,0,0,0-.71-.91C186.49,10.22,156.09,29.65,154.43,29.65Z" fill="#ff671d"/></svg>